<svg xmlns="http://www.w3.org/2000/svg" width="50" height="38.889" viewBox="0 0 50 38.889">
  <path id="Icon_awesome-credit-card" data-name="Icon awesome-credit-card" d="M0,36.972a4.168,4.168,0,0,0,4.167,4.167H45.833A4.168,4.168,0,0,0,50,36.972V21.694H0Zm16.667-5.9a1.045,1.045,0,0,1,1.042-1.042H29.514a1.045,1.045,0,0,1,1.042,1.042v3.472a1.045,1.045,0,0,1-1.042,1.042H17.708a1.045,1.045,0,0,1-1.042-1.042Zm-11.111,0A1.045,1.045,0,0,1,6.6,30.028h6.25a1.045,1.045,0,0,1,1.042,1.042v3.472a1.045,1.045,0,0,1-1.042,1.042H6.6a1.045,1.045,0,0,1-1.042-1.042ZM50,6.417v4.167H0V6.417A4.168,4.168,0,0,1,4.167,2.25H45.833A4.168,4.168,0,0,1,50,6.417Z" transform="translate(0 -2.25)"/>
</svg>
