<svg xmlns="http://www.w3.org/2000/svg" width="35" height="21" viewBox="0 0 35 21">
  <path id="Icon_payment-mastercard" data-name="Icon payment-mastercard" d="M29.641,16.35a10.459,10.459,0,0,0-7,2.676,10.5,10.5,0,1,0,0,15.648,10.5,10.5,0,1,0,7-18.324ZM9.473,29.362l.606-3.812L8.694,29.362h-.78V25.55l-.693,3.812H6.182l.866-5.025H8.608v3.119l1.126-3.119H11.38l-.866,5.025H9.473Zm4.851-1.04a5.686,5.686,0,0,1-.173.779v.26h-.866v-.433a1.254,1.254,0,0,1-1.126.52.933.933,0,0,1-.693-.26,1.4,1.4,0,0,1-.26-.866,1.354,1.354,0,0,1,.433-1.126,2.465,2.465,0,0,1,1.473-.433h.433V26.5c0-.23-.231-.346-.693-.346a4.862,4.862,0,0,0-1.126.173c.056-.23.115-.52.173-.866a3.525,3.525,0,0,1,1.213-.26q1.472,0,1.473,1.213a4.123,4.123,0,0,1-.087.78q-.082.564-.173,1.126Zm3.119-2.079a2.665,2.665,0,0,0-.779-.087c-.346,0-.52.116-.52.346a.349.349,0,0,0,.087.26l.346.173a1.281,1.281,0,0,1,.779,1.126q0,1.387-1.646,1.386a5.136,5.136,0,0,1-1.126-.087c.056-.23.115-.549.173-.953a4.709,4.709,0,0,0,.953.173c.4,0,.606-.115.606-.346a.36.36,0,0,0-.087-.26,1.1,1.1,0,0,0-.433-.26,1.166,1.166,0,0,1-.779-1.126q0-1.385,1.559-1.386a4.014,4.014,0,0,1,1.039.087l-.174.952Zm2.252.087h-.606a3.281,3.281,0,0,1-.087.779,2.7,2.7,0,0,1-.043.347.683.683,0,0,1-.13.346v.346a.306.306,0,0,0,.346.346.771.771,0,0,0,.346-.087l-.173.953a2.62,2.62,0,0,1-.779.087.766.766,0,0,1-.866-.866,4.072,4.072,0,0,1,.173-1.126l.433-2.772h1.039l-.087.606h.52L19.7,26.33Zm3.378,1.386H20.908a.835.835,0,0,0,.173.606,1.057,1.057,0,0,0,.779.26,2.291,2.291,0,0,0,1.126-.346l-.173,1.039a3.065,3.065,0,0,1-1.126.173,1.608,1.608,0,0,1-1.819-1.819,2.587,2.587,0,0,1,.52-1.732,1.569,1.569,0,0,1,1.3-.693,1.528,1.528,0,0,1,1.126.433,1.418,1.418,0,0,1,.346,1.039,5.463,5.463,0,0,1-.087,1.04Zm1.733-.78a17,17,0,0,0-.433,2.426H23.248l.087-.26q.345-2.424.52-3.812h1.039l-.087.606a1.109,1.109,0,0,1,.52-.52.377.377,0,0,1,.52-.087,6.463,6.463,0,0,0-.433,1.213c-.232-.057-.434.087-.607.433Zm3.9,2.339a2.155,2.155,0,0,1-.953.173,1.733,1.733,0,0,1-1.386-.606,2.118,2.118,0,0,1-.52-1.559,3.351,3.351,0,0,1,.693-2.166,1.988,1.988,0,0,1,1.732-.866,4.152,4.152,0,0,1,1.213.26l-.173,1.039a2.16,2.16,0,0,0-.953-.26,1.162,1.162,0,0,0-1.039.52,2.22,2.22,0,0,0-.346,1.386,1.2,1.2,0,0,0,.26.866.821.821,0,0,0,.693.347,2.155,2.155,0,0,0,.953-.26l-.173,1.127Zm3.855-2.512a2.575,2.575,0,0,0-.043.433c-.058.29-.117.68-.173,1.17a6.048,6.048,0,0,1-.173,1H31.3v-.433a1.255,1.255,0,0,1-1.126.52.933.933,0,0,1-.693-.26,1.4,1.4,0,0,1-.26-.866,1.354,1.354,0,0,1,.433-1.126,2.323,2.323,0,0,1,1.386-.433h.433a.356.356,0,0,0,.087-.26c0-.23-.231-.346-.693-.346a4.862,4.862,0,0,0-1.126.173,2.805,2.805,0,0,1,.173-.866,3.525,3.525,0,0,1,1.213-.26q1.472,0,1.473,1.213a2.514,2.514,0,0,1-.042.347Zm1.689.173a17.5,17.5,0,0,0-.433,2.426H32.691l.087-.26q.343-1.894.52-3.812h1.039a1.962,1.962,0,0,1-.087.606,1.107,1.107,0,0,1,.52-.52.62.62,0,0,1,.52-.087,2.309,2.309,0,0,0-.433,1.213c-.232-.057-.433.087-.607.433ZM37.2,29.362l.087-.346a1.153,1.153,0,0,1-.953.433,1.015,1.015,0,0,1-.953-.433,2.065,2.065,0,0,1-.433-1.213,2.666,2.666,0,0,1,.606-1.819,1.358,1.358,0,0,1,1.213-.693,1.5,1.5,0,0,1,1.039.52l.173-1.473H39.1l-.866,5.025H37.2Zm-24.95-1.213c0,.29.115.433.346.433a.586.586,0,0,0,.52-.26,1.06,1.06,0,0,0,.26-.779h-.26c-.578,0-.866.2-.866.606Zm9.789-1.906a.245.245,0,0,1-.173-.087h-.173q-.52,0-.693.693h1.213v-.26l-.087-.173a.261.261,0,0,0-.087-.173Zm8.23,1.906c0,.29.115.433.346.433a.586.586,0,0,0,.52-.26,1.058,1.058,0,0,0,.26-.779h-.26c-.578,0-.866.2-.866.606Zm6.671-1.906a.731.731,0,0,0-.606.433,1.836,1.836,0,0,0-.173.953q0,.78.52.779a.75.75,0,0,0,.606-.346,1.718,1.718,0,0,0,.26-1.039c0-.52-.2-.78-.607-.78Z" transform="translate(-5.141 -16.35)" fill="#707070"/>
</svg>
