<svg xmlns="http://www.w3.org/2000/svg" width="25.2" height="24.1" viewBox="0 0 25.2 24.1">
  <g id="Icon_feather-shopping-cart" data-name="Icon feather-shopping-cart" transform="translate(-1 -1)">
    <path id="Контур_32" data-name="Контур 32" d="M14.2,31.1A1.1,1.1,0,1,1,13.1,30,1.1,1.1,0,0,1,14.2,31.1Z" transform="translate(-2.8 -7.6)" fill="none" stroke="#000" stroke-linecap="round" stroke-linejoin="round" stroke-width="1"/>
    <path id="Контур_33" data-name="Контур 33" d="M30.7,31.1A1.1,1.1,0,1,1,29.6,30,1.1,1.1,0,0,1,30.7,31.1Z" transform="translate(-7.2 -7.6)" fill="none" stroke="#000" stroke-linecap="round" stroke-linejoin="round" stroke-width="1"/>
    <path id="Контур_34" data-name="Контур 34" d="M1.5,1.5H5.9L8.848,16.229A2.2,2.2,0,0,0,11.048,18H21.74a2.2,2.2,0,0,0,2.2-1.771L25.7,7H7" fill="none" stroke="#000" stroke-linecap="round" stroke-linejoin="round" stroke-width="1"/>
  </g>
</svg>
