<svg xmlns="http://www.w3.org/2000/svg" width="24" height="22.02" viewBox="0 0 24 22.02">
  <defs>
    <style>
      .cls-1 {
        fill: #f5a0ad;
      }
    </style>
  </defs>
  <path id="Icon_material-favorite-border" data-name="Icon material-favorite-border" class="cls-1" d="M20.4,4.5A7.186,7.186,0,0,0,15,7.008,7.186,7.186,0,0,0,9.6,4.5,6.536,6.536,0,0,0,3,11.1c0,4.536,4.08,8.232,10.26,13.848L15,26.52l1.74-1.584C22.92,19.332,27,15.636,27,11.1A6.536,6.536,0,0,0,20.4,4.5ZM15.12,23.16l-.12.12-.12-.12C9.168,17.988,5.4,14.568,5.4,11.1A4.1,4.1,0,0,1,9.6,6.9a4.691,4.691,0,0,1,4.284,2.832h2.244A4.662,4.662,0,0,1,20.4,6.9a4.1,4.1,0,0,1,4.2,4.2C24.6,14.568,20.832,17.988,15.12,23.16Z" transform="translate(-3 -4.5)"/>
</svg>
