<svg xmlns="http://www.w3.org/2000/svg" width="57.541" height="57.541" viewBox="0 0 57.541 57.541">
  <path id="Icon_awesome-user-circle" data-name="Icon awesome-user-circle" d="M28.77.563a28.77,28.77,0,1,0,28.77,28.77A28.765,28.765,0,0,0,28.77.563Zm0,11.137A10.209,10.209,0,1,1,18.562,21.908,10.209,10.209,0,0,1,28.77,11.7Zm0,39.907a22.231,22.231,0,0,1-17-7.912A12.934,12.934,0,0,1,23.2,36.757a2.839,2.839,0,0,1,.824.128,15.36,15.36,0,0,0,4.745.8,15.3,15.3,0,0,0,4.745-.8,2.839,2.839,0,0,1,.824-.128,12.934,12.934,0,0,1,11.427,6.937A22.231,22.231,0,0,1,28.77,51.607Z" transform="translate(0 -0.563)" fill="#7d7878"/>
</svg>
