<svg xmlns="http://www.w3.org/2000/svg" width="30" height="22.973" viewBox="0 0 30 22.973">
  <defs>
    <style>
      .cls-1 {
        fill: #3cca88;
      }
    </style>
  </defs>
  <path id="Icon_ionic-ios-checkmark" data-name="Icon ionic-ios-checkmark" class="cls-1" d="M40.276,14.9l-2.452-2.522a.527.527,0,0,0-.39-.167h0a.506.506,0,0,0-.39.167l-17,17.122L13.862,23.31a.539.539,0,0,0-.78,0L10.6,25.79a.555.555,0,0,0,0,.794l7.8,7.8a2.467,2.467,0,0,0,1.63.794,2.585,2.585,0,0,0,1.616-.766h.014L40.29,15.689A.6.6,0,0,0,40.276,14.9Z" transform="translate(-10.434 -12.206)"/>
</svg>
